<svg width="32" height="32" xmlns="http://www.w3.org/2000/svg" xmlns:xlink="http://www.w3.org/1999/xlink"><defs><linearGradient x1="50%" y1="23.647%" x2="50%" y2="95.613%" id="b"><stop stop-color="#6A769A" offset="0%"/><stop stop-color="#586587" offset="100%"/></linearGradient><linearGradient x1="50%" y1="37.383%" x2="29.304%" y2="66.328%" id="c"><stop stop-color="#FDFDFD" offset="0%"/><stop stop-color="#E8E8E8" offset="48.735%"/><stop stop-color="#C6C6C6" offset="100%"/></linearGradient><linearGradient x1="52.834%" y1="54.131%" x2="34.041%" y2="99.694%" id="d"><stop stop-color="#3794FA" offset="0%"/><stop stop-color="#83BEFF" offset="99.96%"/></linearGradient><path d="M5.835 0C2.103 1.316-.381 4.951.048 8.956c.508 4.722 4.865 8.155 9.74 7.664A8.933 8.933 0 0 0 15 14.273c-5.3.517-10.035-3.22-10.581-8.357A9.098 9.098 0 0 1 5.835 0Z" id="a"/></defs><g fill="none" fill-rule="evenodd"><use fill="url(#b)" fill-rule="nonzero" xlink:href="#a" transform="translate(15 1)"/><path d="M13.45 13.496a4.449 4.449 0 0 1 2.184-.57 4.49 4.49 0 0 1 4.458 4.023A3.87 3.87 0 0 1 25 20.683a3.87 3.87 0 0 1-3.863 3.878 3.84 3.84 0 0 1-1.419-.27c-.608.44-1.414.709-2.298.709-.978 0-1.86-.328-2.485-.855-1.33.53-3.123.855-5.095.855-1.951 0-3.727-.318-5.053-.838a3.11 3.11 0 0 1-1.653.472A3.14 3.14 0 0 1 0 21.488c0-.958.427-1.817 1.1-2.394a1.426 1.426 0 0 1 1.031-2.05A6.06 6.06 0 0 1 2.041 16c0-3.314 2.676-6 5.976-6a5.976 5.976 0 0 1 5.433 3.496Z" fill="url(#c)" fill-rule="nonzero" transform="translate(2 1)"/><g transform="translate(2 19.5)" fill="url(#d)"><path d="M5.48 11.303c-1.146-.527-1.713-1.745-1.267-2.726.446-.975 4.773-6.023 5.13-5.894.355.13-.53 6.828-.978 7.806-.444.98-1.736 1.347-2.885.814ZM15.23 11.303c-1.146-.527-1.713-1.745-1.267-2.726.446-.975 4.773-6.023 5.13-5.894.355.13-.53 6.828-.978 7.806-.444.98-1.736 1.347-2.885.814Z"/></g></g></svg>
